<?xml version="1.0" encoding="UTF-8"?>
<svg xmlns="http://www.w3.org/2000/svg" xmlns:xlink="http://www.w3.org/1999/xlink" viewBox="0 0 96 96" width="96px" height="96px">
<defs>
<radialGradient id="radial0" gradientUnits="userSpaceOnUse" cx="19.379999" cy="42.035" fx="19.379999" fy="42.035" r="44.898998" gradientTransform="matrix(1.583339,0,0,1.583339,10.000001,10.000001)">
<stop offset="0" style="stop-color:rgb(100%,86.666667%,33.333334%);stop-opacity:1;"/>
<stop offset="0.328" style="stop-color:rgb(100%,32.941177%,24.705882%);stop-opacity:1;"/>
<stop offset="0.348" style="stop-color:rgb(98.823529%,32.156864%,27.058825%);stop-opacity:1;"/>
<stop offset="0.504" style="stop-color:rgb(90.196079%,27.843139%,44.313726%);stop-opacity:1;"/>
<stop offset="0.643" style="stop-color:rgb(83.529413%,24.313726%,56.862748%);stop-opacity:1;"/>
<stop offset="0.761" style="stop-color:rgb(80.000001%,22.352941%,64.313728%);stop-opacity:1;"/>
<stop offset="0.841" style="stop-color:rgb(78.431374%,21.568628%,67.058825%);stop-opacity:1;"/>
</radialGradient>
<radialGradient id="radial1" gradientUnits="userSpaceOnUse" cx="11.786" cy="5.5403" fx="11.786" fy="5.5403" r="29.813" gradientTransform="matrix(1.583339,0,0,1.583339,10.000001,10.000001)">
<stop offset="0" style="stop-color:rgb(25.490198%,40.784314%,78.823531%);stop-opacity:1;"/>
<stop offset="0.999" style="stop-color:rgb(25.490198%,40.784314%,78.823531%);stop-opacity:0;"/>
</radialGradient>
</defs>
<g id="surface21208549">
<path style=" stroke:none;fill-rule:nonzero;fill:url(#radial0);" d="M 63.859375 76.484375 L 32.195312 76.515625 C 25.226562 76.519531 19.523438 70.828125 19.515625 63.859375 L 19.484375 32.195312 C 19.476562 25.226562 25.171875 19.523438 32.136719 19.515625 L 63.804688 19.484375 C 70.773438 19.476562 76.476562 25.171875 76.484375 32.136719 L 76.515625 63.804688 C 76.523438 70.773438 70.828125 76.476562 63.859375 76.484375 Z M 63.859375 76.484375 "/>
<path style=" stroke:none;fill-rule:nonzero;fill:url(#radial1);" d="M 63.859375 76.484375 L 32.195312 76.515625 C 25.226562 76.519531 19.523438 70.828125 19.515625 63.859375 L 19.484375 32.195312 C 19.476562 25.226562 25.171875 19.523438 32.136719 19.515625 L 63.804688 19.484375 C 70.773438 19.476562 76.476562 25.171875 76.484375 32.136719 L 76.515625 63.804688 C 76.523438 70.773438 70.828125 76.476562 63.859375 76.484375 Z M 63.859375 76.484375 "/>
<path style=" stroke:none;fill-rule:nonzero;fill:rgb(100%,100%,100%);fill-opacity:1;" d="M 48 59.082031 C 41.890625 59.082031 36.917969 54.113281 36.917969 48 C 36.917969 41.886719 41.890625 36.917969 48 36.917969 C 54.109375 36.917969 59.082031 41.886719 59.082031 48 C 59.082031 54.113281 54.109375 59.082031 48 59.082031 Z M 48 40.082031 C 43.636719 40.082031 40.082031 43.636719 40.082031 48 C 40.082031 52.367188 43.636719 55.917969 48 55.917969 C 52.367188 55.917969 55.917969 52.367188 55.917969 48 C 55.917969 43.636719 52.367188 40.082031 48 40.082031 Z M 48 40.082031 "/>
<path style=" stroke:none;fill-rule:nonzero;fill:rgb(100%,100%,100%);fill-opacity:1;" d="M 62.25 36.125 C 62.25 37.4375 61.1875 38.5 59.875 38.5 C 58.5625 38.5 57.5 37.4375 57.5 36.125 C 57.5 34.8125 58.5625 33.75 59.875 33.75 C 61.1875 33.75 62.25 34.8125 62.25 36.125 Z M 62.25 36.125 "/>
<path style=" stroke:none;fill-rule:nonzero;fill:rgb(100%,100%,100%);fill-opacity:1;" d="M 57.5 68.582031 L 38.5 68.582031 C 32.390625 68.582031 27.417969 63.613281 27.417969 57.5 L 27.417969 38.5 C 27.417969 32.386719 32.390625 27.417969 38.5 27.417969 L 57.5 27.417969 C 63.609375 27.417969 68.582031 32.386719 68.582031 38.5 L 68.582031 57.5 C 68.582031 63.613281 63.609375 68.582031 57.5 68.582031 Z M 38.5 30.582031 C 34.136719 30.582031 30.582031 34.136719 30.582031 38.5 L 30.582031 57.5 C 30.582031 61.867188 34.136719 65.417969 38.5 65.417969 L 57.5 65.417969 C 61.867188 65.417969 65.417969 61.867188 65.417969 57.5 L 65.417969 38.5 C 65.417969 34.136719 61.867188 30.582031 57.5 30.582031 Z M 38.5 30.582031 "/>
</g>
</svg>
