<?xml version="1.0" encoding="UTF-8"?>
<svg xmlns="http://www.w3.org/2000/svg" xmlns:xlink="http://www.w3.org/1999/xlink" viewBox="0 0 48 48" width="48px" height="48px">
<defs>
<radialGradient id="radial0" gradientUnits="userSpaceOnUse" cx="19.379999" cy="42.035" fx="19.379999" fy="42.035" r="44.898998" gradientTransform="matrix(0.79167,0,0,0.79167,5.000001,5.000001)">
<stop offset="0" style="stop-color:rgb(100%,86.666667%,33.333334%);stop-opacity:1;"/>
<stop offset="0.328" style="stop-color:rgb(100%,32.941177%,24.705882%);stop-opacity:1;"/>
<stop offset="0.348" style="stop-color:rgb(98.823529%,32.156864%,27.058825%);stop-opacity:1;"/>
<stop offset="0.504" style="stop-color:rgb(90.196079%,27.843139%,44.313726%);stop-opacity:1;"/>
<stop offset="0.643" style="stop-color:rgb(83.529413%,24.313726%,56.862748%);stop-opacity:1;"/>
<stop offset="0.761" style="stop-color:rgb(80.000001%,22.352941%,64.313728%);stop-opacity:1;"/>
<stop offset="0.841" style="stop-color:rgb(78.431374%,21.568628%,67.058825%);stop-opacity:1;"/>
</radialGradient>
<radialGradient id="radial1" gradientUnits="userSpaceOnUse" cx="11.786" cy="5.5403" fx="11.786" fy="5.5403" r="29.813" gradientTransform="matrix(0.79167,0,0,0.79167,5.000001,5.000001)">
<stop offset="0" style="stop-color:rgb(25.490198%,40.784314%,78.823531%);stop-opacity:1;"/>
<stop offset="0.999" style="stop-color:rgb(25.490198%,40.784314%,78.823531%);stop-opacity:0;"/>
</radialGradient>
</defs>
<g id="surface21208555">
<path style=" stroke:none;fill-rule:nonzero;fill:url(#radial0);" d="M 31.929688 38.242188 L 16.097656 38.257812 C 12.613281 38.261719 9.761719 35.414062 9.757812 31.929688 L 9.742188 16.097656 C 9.738281 12.613281 12.585938 9.761719 16.070312 9.757812 L 31.902344 9.742188 C 35.386719 9.738281 38.238281 12.585938 38.242188 16.070312 L 38.257812 31.902344 C 38.261719 35.386719 35.414062 38.238281 31.929688 38.242188 Z M 31.929688 38.242188 "/>
<path style=" stroke:none;fill-rule:nonzero;fill:url(#radial1);" d="M 31.929688 38.242188 L 16.097656 38.257812 C 12.613281 38.261719 9.761719 35.414062 9.757812 31.929688 L 9.742188 16.097656 C 9.738281 12.613281 12.585938 9.761719 16.070312 9.757812 L 31.902344 9.742188 C 35.386719 9.738281 38.238281 12.585938 38.242188 16.070312 L 38.257812 31.902344 C 38.261719 35.386719 35.414062 38.238281 31.929688 38.242188 Z M 31.929688 38.242188 "/>
<path style=" stroke:none;fill-rule:nonzero;fill:rgb(100%,100%,100%);fill-opacity:1;" d="M 24 29.542969 C 20.945312 29.542969 18.457031 27.054688 18.457031 24 C 18.457031 20.945312 20.945312 18.457031 24 18.457031 C 27.054688 18.457031 29.542969 20.945312 29.542969 24 C 29.542969 27.054688 27.054688 29.542969 24 29.542969 Z M 24 20.042969 C 21.816406 20.042969 20.042969 21.816406 20.042969 24 C 20.042969 26.183594 21.816406 27.957031 24 27.957031 C 26.183594 27.957031 27.957031 26.183594 27.957031 24 C 27.957031 21.816406 26.183594 20.042969 24 20.042969 Z M 24 20.042969 "/>
<path style=" stroke:none;fill-rule:nonzero;fill:rgb(100%,100%,100%);fill-opacity:1;" d="M 31.125 18.0625 C 31.125 18.71875 30.59375 19.25 29.9375 19.25 C 29.28125 19.25 28.75 18.71875 28.75 18.0625 C 28.75 17.40625 29.28125 16.875 29.9375 16.875 C 30.59375 16.875 31.125 17.40625 31.125 18.0625 Z M 31.125 18.0625 "/>
<path style=" stroke:none;fill-rule:nonzero;fill:rgb(100%,100%,100%);fill-opacity:1;" d="M 28.75 34.292969 L 19.25 34.292969 C 16.195312 34.292969 13.707031 31.804688 13.707031 28.75 L 13.707031 19.25 C 13.707031 16.195312 16.195312 13.707031 19.25 13.707031 L 28.75 13.707031 C 31.804688 13.707031 34.292969 16.195312 34.292969 19.25 L 34.292969 28.75 C 34.292969 31.804688 31.804688 34.292969 28.75 34.292969 Z M 19.25 15.292969 C 17.066406 15.292969 15.292969 17.066406 15.292969 19.25 L 15.292969 28.75 C 15.292969 30.933594 17.066406 32.707031 19.25 32.707031 L 28.75 32.707031 C 30.933594 32.707031 32.707031 30.933594 32.707031 28.75 L 32.707031 19.25 C 32.707031 17.066406 30.933594 15.292969 28.75 15.292969 Z M 19.25 15.292969 "/>
</g>
</svg>
