<?xml version="1.0" encoding="UTF-8" standalone="no"?>
<svg
   id="visual"
   viewBox="0 0 960 267.37189"
   width="960"
   height="267.37189"
   version="1.1"
   sodipodi:docname="waves1.svg"
   inkscape:version="1.2.1 (9c6d41e410, 2022-07-14)"
   xmlns:inkscape="http://www.inkscape.org/namespaces/inkscape"
   xmlns:sodipodi="http://sodipodi.sourceforge.net/DTD/sodipodi-0.dtd"
   xmlns="http://www.w3.org/2000/svg"
   xmlns:svg="http://www.w3.org/2000/svg">
  <defs
     id="defs19">
    <clipPath
       clipPathUnits="userSpaceOnUse"
       id="clipPath436">
      <rect
         style="fill:#000000"
         id="rect438"
         width="1080.5951"
         height="312.59503"
         x="-96"
         y="-45.223141" />
    </clipPath>
    <clipPath
       clipPathUnits="userSpaceOnUse"
       id="clipPath440">
      <rect
         style="fill:#000000"
         id="rect442"
         width="1080.5951"
         height="312.59503"
         x="-96"
         y="-45.223141" />
    </clipPath>
    <clipPath
       clipPathUnits="userSpaceOnUse"
       id="clipPath444">
      <rect
         style="fill:#000000"
         id="rect446"
         width="1080.5951"
         height="312.59503"
         x="-96"
         y="-45.223141" />
    </clipPath>
    <clipPath
       clipPathUnits="userSpaceOnUse"
       id="clipPath448">
      <rect
         style="fill:#000000"
         id="rect450"
         width="1080.5951"
         height="312.59503"
         x="-96"
         y="-45.223141" />
    </clipPath>
    <clipPath
       clipPathUnits="userSpaceOnUse"
       id="clipPath452">
      <rect
         style="fill:#000000"
         id="rect454"
         width="1080.5951"
         height="312.59503"
         x="-96"
         y="-45.223141" />
    </clipPath>
    <clipPath
       clipPathUnits="userSpaceOnUse"
       id="clipPath456">
      <rect
         style="fill:#000000"
         id="rect458"
         width="1080.5951"
         height="312.59503"
         x="-96"
         y="-45.223141" />
    </clipPath>
    <clipPath
       clipPathUnits="userSpaceOnUse"
       id="clipPath460">
      <rect
         style="fill:#000000"
         id="rect462"
         width="1080.5951"
         height="312.59503"
         x="-96"
         y="-45.223141" />
    </clipPath>
  </defs>
  <sodipodi:namedview
     id="namedview17"
     pagecolor="#ffffff"
     bordercolor="#000000"
     borderopacity="0.25"
     inkscape:showpageshadow="2"
     inkscape:pageopacity="0.0"
     inkscape:pagecheckerboard="0"
     inkscape:deskcolor="#d1d1d1"
     showgrid="false"
     inkscape:zoom="1.2604167"
     inkscape:cx="480"
     inkscape:cy="149.95041"
     inkscape:window-width="2560"
     inkscape:window-height="1369"
     inkscape:window-x="1912"
     inkscape:window-y="-8"
     inkscape:window-maximized="1"
     inkscape:current-layer="visual" />
  <rect
     x="0"
     y="0"
     width="960"
     height="300"
     fill="#e471cb"
     id="rect2"
     clip-path="url(#clipPath460)" />
  <path
     d="m 0,195 20,9.5 c 20,9.5 60,28.5 100,25.2 40,-3.4 80,-29 120,-38.9 40,-9.8 80,-3.8 120,-3 40,0.9 80,-3.5 120,0.7 40,4.2 80,16.8 120,19.8 40,3 80,-3.6 120,-2.6 40,1 80,9.6 120,20.6 40,11 80,24.4 100,31 l 20,6.7 V 0 H 940 C 920,0 880,0 840,0 800,0 760,0 720,0 680,0 640,0 600,0 560,0 520,0 480,0 440,0 400,0 360,0 320,0 280,0 240,0 200,0 160,0 120,0 80,0 40,0 20,0 H 0 Z"
     fill="#e09bd1"
     id="path4"
     clip-path="url(#clipPath456)" />
  <path
     d="m 0,181 20,5.8 c 20,5.9 60,17.5 100,12.4 40,-5.2 80,-27.2 120,-39.4 40,-12.1 80,-14.5 120,-14.5 40,0 80,2.4 120,14.4 40,12 80,33.6 120,32.1 40,-1.5 80,-26.1 120,-37.6 40,-11.5 80,-9.9 120,0.1 40,10 80,28.4 100,37.5 l 20,9.2 V 0 H 940 C 920,0 880,0 840,0 800,0 760,0 720,0 680,0 640,0 600,0 560,0 520,0 480,0 440,0 400,0 360,0 320,0 280,0 240,0 200,0 160,0 120,0 80,0 40,0 20,0 H 0 Z"
     fill="#e7afda"
     id="path6"
     clip-path="url(#clipPath452)" />
  <path
     d="m 0,136 20,-1.2 c 20,-1.1 60,-3.5 100,0.4 40,3.8 80,13.8 120,22.5 40,8.6 80,16 120,15.3 40,-0.7 80,-9.3 120,-19.2 40,-9.8 80,-20.8 120,-27.1 40,-6.4 80,-8 120,-4.4 40,3.7 80,12.7 120,18 40,5.4 80,7 100,7.9 l 20,0.8 V 0 H 940 C 920,0 880,0 840,0 800,0 760,0 720,0 680,0 640,0 600,0 560,0 520,0 480,0 440,0 400,0 360,0 320,0 280,0 240,0 200,0 160,0 120,0 80,0 40,0 20,0 H 0 Z"
     fill="#eec3e3"
     id="path8"
     clip-path="url(#clipPath448)" />
  <path
     d="m 0,120 20,3.7 c 20,3.6 60,11 100,15.3 40,4.3 80,5.7 120,-5.5 40,-11.2 80,-34.8 120,-40.5 40,-5.7 80,6.7 120,15.5 40,8.8 80,14.2 120,15.8 40,1.7 80,-0.3 120,-6.1 40,-5.9 80,-15.5 120,-17.7 40,-2.2 80,3.2 100,5.8 l 20,2.7 V 0 H 940 C 920,0 880,0 840,0 800,0 760,0 720,0 680,0 640,0 600,0 560,0 520,0 480,0 440,0 400,0 360,0 320,0 280,0 240,0 200,0 160,0 120,0 80,0 40,0 20,0 H 0 Z"
     fill="#f4d7ed"
     id="path10"
     clip-path="url(#clipPath444)" />
  <path
     d="m 0,47 20,9.2 c 20,9.1 60,27.5 100,32.1 40,4.7 80,-4.3 120,-8.3 40,-4 80,-3 120,-3.2 40,-0.1 80,-1.5 120,-3.3 40,-1.8 80,-4.2 120,-1.2 40,3 80,11.4 120,9.2 40,-2.2 80,-14.8 120,-22 40,-7.2 80,-8.8 100,-9.7 L 960,49 V 0 H 940 C 920,0 880,0 840,0 800,0 760,0 720,0 680,0 640,0 600,0 560,0 520,0 480,0 440,0 400,0 360,0 320,0 280,0 240,0 200,0 160,0 120,0 80,0 40,0 20,0 H 0 Z"
     fill="#faebf6"
     id="path12"
     clip-path="url(#clipPath440)" />
  <path
     d="m 0,21 20,4.2 c 20,4.1 60,12.5 100,20.1 40,7.7 80,14.7 120,12.7 40,-2 80,-13 120,-17.7 40,-4.6 80,-3 120,-0.8 40,2.2 80,4.8 120,5.2 40,0.3 80,-1.7 120,-5.5 40,-3.9 80,-9.5 120,-11.5 40,-2 80,-0.4 100,0.5 L 960,29 V 0 H 940 C 920,0 880,0 840,0 800,0 760,0 720,0 680,0 640,0 600,0 560,0 520,0 480,0 440,0 400,0 360,0 320,0 280,0 240,0 200,0 160,0 120,0 80,0 40,0 20,0 H 0 Z"
     fill="#ffffff"
     id="path14"
     clip-path="url(#clipPath436)" />
</svg>
