<svg xmlns="http://www.w3.org/2000/svg" version="1.1" xmlns:xlink="http://www.w3.org/1999/xlink" xmlns:svgjs="http://svgjs.com/svgjs" width="1440" height="200" preserveAspectRatio="none" viewBox="0 0 1440 200"><g mask="url(&quot;#SvgjsMask1102&quot;)" fill="none"><path d="M -352.51563700949094,148 C -294.92,133.2 -179.72,67 -64.51563700949094,74 C 50.68,81 108.28,192.4 223.48436299050906,183 C 338.68,173.6 396.28,38.6 511.48436299050906,27 C 626.68,15.4 684.28,123.2 799.484362990509,125 C 914.68,126.8 972.28,24.2 1087.484362990509,36 C 1202.68,47.8 1304.98,182 1375.484362990509,184 C 1445.99,186 1427.1,73.6 1440,46" stroke="rgba(255, 255, 255, 1)" stroke-width="2"></path><path d="M -360.75182895061073,91 C -303.15,102.2 -187.95,148.8 -72.75182895061076,147 C 42.45,145.2 100.05,90 215.24817104938924,82 C 330.45,74 388.05,107 503.24817104938927,107 C 618.45,107 676.05,82 791.2481710493893,82 C 906.45,82 964.05,105.8 1079.2481710493892,107 C 1194.45,108.2 1295.1,84 1367.2481710493892,88 C 1439.4,92 1425.45,119.2 1440,127" stroke="rgba(255, 255, 255, 1)" stroke-width="2"></path><path d="M -9.611760143005313,120 C 47.99,115 163.19,83.4 278.3882398569947,95 C 393.59,106.6 451.19,180 566.3882398569947,178 C 681.59,176 739.19,83.2 854.3882398569947,85 C 969.59,86.8 1027.19,198.4 1142.3882398569947,187 C 1257.59,175.6 1315.19,41.6 1430.3882398569947,28 C 1545.59,14.4 1716.47,106.4 1718.3882398569947,119 C 1720.31,131.6 1495.68,96.6 1440,91" stroke="rgba(255, 255, 255, 1)" stroke-width="2"></path><path d="M -97.27229057107485,23 C -39.67,51.6 75.53,152 190.72770942892515,166 C 305.93,180 363.53,91.2 478.72770942892515,93 C 593.93,94.8 651.53,190.2 766.7277094289252,175 C 881.93,159.8 939.53,18.4 1054.7277094289252,17 C 1169.93,15.6 1227.53,161 1342.7277094289252,168 C 1457.93,175 1611.27,58.4 1630.7277094289252,52 C 1650.18,45.6 1478.15,119.2 1440,136" stroke="rgba(255, 255, 255, 1)" stroke-width="2"></path></g><defs><mask id="SvgjsMask1102"><rect width="1440" height="200" fill="#ffffff"></rect></mask></defs></svg>